<?xml version="1.0" encoding="UTF-8" standalone="no"?>
<!-- Created with sK1/UniConvertor (http://sk1project.org/) -->

<svg
   xmlns:dc="http://purl.org/dc/elements/1.1/"
   xmlns:cc="http://creativecommons.org/ns#"
   xmlns:rdf="http://www.w3.org/1999/02/22-rdf-syntax-ns#"
   xmlns:svg="http://www.w3.org/2000/svg"
   xmlns="http://www.w3.org/2000/svg"
   xmlns:sodipodi="http://sodipodi.sourceforge.net/DTD/sodipodi-0.dtd"
   xmlns:inkscape="http://www.inkscape.org/namespaces/inkscape"
   width="380mm"
   height="240mm"
   viewBox="0 0 1077.1654 680.31494"
   version="1.1"
   id="svg4117"
   sodipodi:docname="Base_principale24_coloured.svg"
   inkscape:version="0.92.4 (5da689c313, 2019-01-14)"
   style="fill-rule:evenodd">
  <metadata
     id="metadata4123">
    <rdf:RDF>
      <cc:Work
         rdf:about="">
        <dc:format>image/svg+xml</dc:format>
        <dc:type
           rdf:resource="http://purl.org/dc/dcmitype/StillImage" />
        <dc:title></dc:title>
      </cc:Work>
    </rdf:RDF>
  </metadata>
  <defs
     id="defs4121" />
  <sodipodi:namedview
     pagecolor="#ffffff"
     bordercolor="#666666"
     borderopacity="1"
     objecttolerance="10"
     gridtolerance="10"
     guidetolerance="10"
     inkscape:pageopacity="0"
     inkscape:pageshadow="2"
     inkscape:window-width="3440"
     inkscape:window-height="1377"
     id="namedview4119"
     showgrid="false"
     inkscape:zoom="1.0761501"
     inkscape:cx="396.85067"
     inkscape:cy="524.09047"
     inkscape:window-x="-8"
     inkscape:window-y="-8"
     inkscape:window-maximized="1"
     inkscape:current-layer="svg4117"
     units="mm"
     fit-margin-top="1" />
  <g
     id="g4115"
     style="fill:#4d4d4d"
     transform="translate(109.41783,-228.48024)">
    <path
       style="fill:#4d4d4d;stroke:#000000;stroke-width:0.85039401;stroke-linecap:round;stroke-linejoin:round"
       d="m 541.579,488.206 c 0,-1.831 -1.486,-3.316 -3.316,-3.316 -1.83,0 -3.316,1.485 -3.316,3.316 0,1.83 1.486,3.315 3.316,3.315 1.83,0 3.316,-1.485 3.316,-3.315 z"
       id="path3919"
       inkscape:connector-curvature="0" />
    <path
       style="fill:#4d4d4d;stroke:#000000;stroke-width:0.85039401;stroke-linecap:round;stroke-linejoin:round"
       d="m 175.737,615.311 c 0,-1.83 -1.486,-3.316 -3.316,-3.316 -1.83,0 -3.316,1.486 -3.316,3.316 0,1.83 1.486,3.316 3.316,3.316 1.83,0 3.316,-1.486 3.316,-3.316 z"
       id="path3921"
       inkscape:connector-curvature="0" />
    <path
       style="fill:#4d4d4d;stroke:#000000;stroke-width:0.85039401;stroke-linecap:round;stroke-linejoin:round"
       d="m 175.737,537.942 c 0,-1.83 -1.486,-3.315 -3.316,-3.315 -1.83,0 -3.316,1.485 -3.316,3.315 0,1.831 1.486,3.316 3.316,3.316 1.83,0 3.316,-1.485 3.316,-3.316 z"
       id="path3923"
       inkscape:connector-curvature="0" />
    <path
       style="fill:#4d4d4d;stroke:#000000;stroke-width:0.85039401;stroke-linecap:round;stroke-linejoin:round"
       d="m 670.895,615.311 c 0,-1.83 -1.486,-3.316 -3.316,-3.316 -1.83,0 -3.316,1.486 -3.316,3.316 0,1.83 1.486,3.316 3.316,3.316 1.83,0 3.316,-1.486 3.316,-3.316 z"
       id="path3925"
       inkscape:connector-curvature="0" />
    <path
       style="fill:#4d4d4d;stroke:#000000;stroke-width:0.85039401;stroke-linecap:round;stroke-linejoin:round"
       d="m 423.316,488.206 c 0,-1.831 -1.486,-3.316 -3.316,-3.316 -1.83,0 -3.316,1.485 -3.316,3.316 0,1.83 1.486,3.315 3.316,3.315 1.83,0 3.316,-1.485 3.316,-3.315 z"
       id="path3927"
       inkscape:connector-curvature="0" />
    <path
       style="fill:#4d4d4d;stroke:#000000;stroke-width:0.85039401;stroke-linecap:round;stroke-linejoin:round"
       d="m 305.053,488.206 c 0,-1.831 -1.486,-3.316 -3.316,-3.316 -1.83,0 -3.316,1.485 -3.316,3.316 0,1.83 1.486,3.315 3.316,3.315 1.83,0 3.316,-1.485 3.316,-3.315 z"
       id="path3929"
       inkscape:connector-curvature="0" />
    <path
       style="fill:#4d4d4d;stroke:#000000;stroke-width:0.85039401;stroke-linecap:round;stroke-linejoin:round"
       d="m 541.579,665.048 c 0,-1.831 -1.486,-3.316 -3.316,-3.316 -1.83,0 -3.316,1.485 -3.316,3.316 0,1.83 1.486,3.315 3.316,3.315 1.83,0 3.316,-1.485 3.316,-3.315 z"
       id="path3931"
       inkscape:connector-curvature="0" />
    <path
       style="fill:#4d4d4d;stroke:#000000;stroke-width:0.85039401;stroke-linecap:round;stroke-linejoin:round"
       d="m 423.316,665.048 c 0,-1.831 -1.486,-3.316 -3.316,-3.316 -1.83,0 -3.316,1.485 -3.316,3.316 0,1.83 1.486,3.315 3.316,3.315 1.83,0 3.316,-1.485 3.316,-3.315 z"
       id="path3933"
       inkscape:connector-curvature="0" />
    <path
       style="fill:#4d4d4d;stroke:#000000;stroke-width:0.85039401;stroke-linecap:round;stroke-linejoin:round"
       d="m 670.895,537.942 c 0,-1.83 -1.486,-3.315 -3.316,-3.315 -1.83,0 -3.316,1.485 -3.316,3.315 0,1.831 1.486,3.316 3.316,3.316 1.83,0 3.316,-1.485 3.316,-3.316 z"
       id="path3935"
       inkscape:connector-curvature="0" />
    <path
       style="fill:#4d4d4d;stroke:#000000;stroke-width:0.85039401;stroke-linecap:round;stroke-linejoin:round"
       d="m 305.053,665.048 c 0,-1.831 -1.486,-3.316 -3.316,-3.316 -1.83,0 -3.316,1.485 -3.316,3.316 0,1.83 1.486,3.315 3.316,3.315 1.83,0 3.316,-1.485 3.316,-3.315 z"
       id="path3937"
       inkscape:connector-curvature="0" />
    <path
       style="fill:#4d4d4d;stroke:#000000;stroke-width:0.85039401;stroke-linecap:round;stroke-linejoin:round"
       d="m 44.7632,344.521 c 0,-1.83 -1.4856,-3.315 -3.3158,-3.315 -1.8302,0 -3.3158,1.485 -3.3158,3.315 0,1.831 1.4856,3.316 3.3158,3.316 1.8302,0 3.3158,-1.485 3.3158,-3.316 z"
       id="path3939"
       inkscape:connector-curvature="0" />
    <path
       style="fill:#4d4d4d;stroke:#000000;stroke-width:0.85039401;stroke-linecap:round;stroke-linejoin:round"
       d="m 379.105,344.521 c 0,-1.83 -1.485,-3.315 -3.316,-3.315 -1.83,0 -3.315,1.485 -3.315,3.315 0,1.831 1.485,3.316 3.315,3.316 1.831,0 3.316,-1.485 3.316,-3.316 z"
       id="path3941"
       inkscape:connector-curvature="0" />
    <path
       style="fill:#4d4d4d;stroke:#000000;stroke-width:0.85039401;stroke-linecap:round;stroke-linejoin:round"
       d="m 467.526,344.521 c 0,-1.83 -1.485,-3.315 -3.315,-3.315 -1.831,0 -3.316,1.485 -3.316,3.315 0,1.831 1.485,3.316 3.316,3.316 1.83,0 3.315,-1.485 3.315,-3.316 z"
       id="path3943"
       inkscape:connector-curvature="0" />
    <path
       style="fill:#4d4d4d;stroke:#000000;stroke-width:0.85039401;stroke-linecap:round;stroke-linejoin:round"
       d="M 731.132,311.363 H 690.789"
       id="path3945"
       inkscape:connector-curvature="0" />
    <path
       style="fill:#4d4d4d;stroke:#000000;stroke-width:0.85039401;stroke-linecap:round;stroke-linejoin:round"
       d="m 731.132,311.363 v 55.264"
       id="path3947"
       inkscape:connector-curvature="0" />
    <path
       style="fill:#4d4d4d;stroke:#000000;stroke-width:0.85039401;stroke-linecap:round;stroke-linejoin:round"
       d="m 731.132,366.627 h 46.421"
       id="path3949"
       inkscape:connector-curvature="0" />
    <path
       style="fill:#4d4d4d;stroke:#000000;stroke-width:0.85039401;stroke-linecap:round;stroke-linejoin:round"
       d="M 777.553,366.627 V 311.363"
       id="path3951"
       inkscape:connector-curvature="0" />
    <path
       style="fill:#4d4d4d;stroke:#000000;stroke-width:0.85039401;stroke-linecap:round;stroke-linejoin:round"
       d="M 813.474,311.363 H 777.553"
       id="path3953"
       inkscape:connector-curvature="0" />
    <path
       style="fill:#4d4d4d;stroke:#000000;stroke-width:0.85039401;stroke-linecap:round;stroke-linejoin:round"
       d="M 840,452.837 813.474,311.363"
       id="path3955"
       inkscape:connector-curvature="0" />
    <path
       style="fill:#4d4d4d;stroke:#000000;stroke-width:0.85039401;stroke-linecap:round;stroke-linejoin:round"
       d="M 840,700.416 V 452.837"
       id="path3957"
       inkscape:connector-curvature="0" />
    <path
       style="fill:#4d4d4d;stroke:#000000;stroke-width:0.85039401;stroke-linecap:round;stroke-linejoin:round"
       d="M 813.474,841.89 840,700.416"
       id="path3959"
       inkscape:connector-curvature="0" />
    <path
       style="fill:#4d4d4d;stroke:#000000;stroke-width:0.85039401;stroke-linecap:round;stroke-linejoin:round"
       d="m 777.553,841.89 h 35.921"
       id="path3961"
       inkscape:connector-curvature="0" />
    <path
       style="fill:#4d4d4d;stroke:#000000;stroke-width:0.85039401;stroke-linecap:round;stroke-linejoin:round"
       d="M 777.553,841.89 V 786.627"
       id="path3963"
       inkscape:connector-curvature="0" />
    <path
       style="fill:#4d4d4d;stroke:#000000;stroke-width:0.85039401;stroke-linecap:round;stroke-linejoin:round"
       d="M 777.553,786.627 H 731.132"
       id="path3965"
       inkscape:connector-curvature="0" />
    <path
       style="fill:#4d4d4d;stroke:#000000;stroke-width:0.85039401;stroke-linecap:round;stroke-linejoin:round"
       d="M 731.132,786.627 V 841.89"
       id="path3967"
       inkscape:connector-curvature="0" />
    <path
       style="fill:#4d4d4d;stroke:#000000;stroke-width:0.85039401;stroke-linecap:round;stroke-linejoin:round"
       d="m 690.789,841.89 h 40.343"
       id="path3969"
       inkscape:connector-curvature="0" />
    <path
       style="fill:#4d4d4d;stroke:#000000;stroke-width:0.85039401;stroke-linecap:round;stroke-linejoin:round"
       d="M 690.789,841.89 668.684,676.1"
       id="path3971"
       inkscape:connector-curvature="0" />
    <path
       style="fill:#4d4d4d;stroke:#000000;stroke-width:0.85039401;stroke-linecap:round;stroke-linejoin:round"
       d="M 668.684,676.1 H 502.895"
       id="path3973"
       inkscape:connector-curvature="0" />
    <path
       style="fill:#4d4d4d;stroke:#000000;stroke-width:0.85039401;stroke-linecap:round;stroke-linejoin:round"
       d="M 502.895,676.1 480.789,841.89"
       id="path3975"
       inkscape:connector-curvature="0" />
    <path
       style="fill:#4d4d4d;stroke:#000000;stroke-width:0.85039401;stroke-linecap:round;stroke-linejoin:round"
       d="m 443.211,841.89 h 37.578"
       id="path3977"
       inkscape:connector-curvature="0" />
    <path
       style="fill:#4d4d4d;stroke:#000000;stroke-width:0.85039401;stroke-linecap:round;stroke-linejoin:round"
       d="M 443.211,841.89 V 786.627"
       id="path3979"
       inkscape:connector-curvature="0" />
    <path
       style="fill:#4d4d4d;stroke:#000000;stroke-width:0.85039401;stroke-linecap:round;stroke-linejoin:round"
       d="M 443.211,786.627 H 396.789"
       id="path3981"
       inkscape:connector-curvature="0" />
    <path
       style="fill:#4d4d4d;stroke:#000000;stroke-width:0.85039401;stroke-linecap:round;stroke-linejoin:round"
       d="M 396.789,786.627 V 841.89"
       id="path3983"
       inkscape:connector-curvature="0" />
    <path
       style="fill:#4d4d4d;stroke:#000000;stroke-width:0.85039401;stroke-linecap:round;stroke-linejoin:round"
       d="m 359.211,841.89 h 37.578"
       id="path3985"
       inkscape:connector-curvature="0" />
    <path
       style="fill:#4d4d4d;stroke:#000000;stroke-width:0.85039401;stroke-linecap:round;stroke-linejoin:round"
       d="M 359.211,841.89 337.105,676.1"
       id="path3987"
       inkscape:connector-curvature="0" />
    <path
       style="fill:#4d4d4d;stroke:#000000;stroke-width:0.85039401;stroke-linecap:round;stroke-linejoin:round"
       d="M 337.105,676.1 H 171.316"
       id="path3989"
       inkscape:connector-curvature="0" />
    <path
       style="fill:#4d4d4d;stroke:#000000;stroke-width:0.85039401;stroke-linecap:round;stroke-linejoin:round"
       d="M 171.316,676.1 149.211,841.89"
       id="path3991"
       inkscape:connector-curvature="0" />
    <path
       style="fill:#4d4d4d;stroke:#000000;stroke-width:0.85039401;stroke-linecap:round;stroke-linejoin:round"
       d="m 108.868,841.89 h 40.343"
       id="path3993"
       inkscape:connector-curvature="0" />
    <path
       style="fill:#4d4d4d;stroke:#000000;stroke-width:0.85039401;stroke-linecap:round;stroke-linejoin:round"
       d="M 108.868,841.89 V 786.627"
       id="path3995"
       inkscape:connector-curvature="0" />
    <path
       style="fill:#4d4d4d;stroke:#000000;stroke-width:0.85039401;stroke-linecap:round;stroke-linejoin:round"
       d="M 108.868,786.627 H 62.4474"
       id="path3997"
       inkscape:connector-curvature="0" />
    <path
       style="fill:#4d4d4d;stroke:#000000;stroke-width:0.85039401;stroke-linecap:round;stroke-linejoin:round"
       d="M 62.4474,786.627 V 841.89"
       id="path3999"
       inkscape:connector-curvature="0" />
    <path
       style="fill:#4d4d4d;stroke:#000000;stroke-width:0.85039401;stroke-linecap:round;stroke-linejoin:round"
       d="M 26.5263,841.89 H 62.4474"
       id="path4001"
       inkscape:connector-curvature="0" />
    <path
       style="fill:#4d4d4d;stroke:#000000;stroke-width:0.85039401;stroke-linecap:round;stroke-linejoin:round"
       d="M 0,700.416 26.5263,841.89"
       id="path4003"
       inkscape:connector-curvature="0" />
    <path
       style="fill:#4d4d4d;stroke:#000000;stroke-width:0.85039401;stroke-linecap:round;stroke-linejoin:round"
       d="M 0,452.837 V 700.416"
       id="path4005"
       inkscape:connector-curvature="0" />
    <path
       style="fill:#4d4d4d;stroke:#000000;stroke-width:0.85039401;stroke-linecap:round;stroke-linejoin:round"
       d="M 26.5263,311.363 0,452.837"
       id="path4007"
       inkscape:connector-curvature="0" />
    <path
       style="fill:#4d4d4d;stroke:#000000;stroke-width:0.85039401;stroke-linecap:round;stroke-linejoin:round"
       d="M 62.4474,311.363 H 26.5263"
       id="path4009"
       inkscape:connector-curvature="0" />
    <path
       style="fill:#4d4d4d;stroke:#000000;stroke-width:0.85039401;stroke-linecap:round;stroke-linejoin:round"
       d="m 62.4474,311.363 v 55.264"
       id="path4011"
       inkscape:connector-curvature="0" />
    <path
       style="fill:#4d4d4d;stroke:#000000;stroke-width:0.85039401;stroke-linecap:round;stroke-linejoin:round"
       d="M 62.4474,366.627 H 108.868"
       id="path4013"
       inkscape:connector-curvature="0" />
    <path
       style="fill:#4d4d4d;stroke:#000000;stroke-width:0.85039401;stroke-linecap:round;stroke-linejoin:round"
       d="M 108.868,366.627 V 311.363"
       id="path4015"
       inkscape:connector-curvature="0" />
    <path
       style="fill:#4d4d4d;stroke:#000000;stroke-width:0.85039401;stroke-linecap:round;stroke-linejoin:round"
       d="M 149.211,311.363 H 108.868"
       id="path4017"
       inkscape:connector-curvature="0" />
    <path
       style="fill:#4d4d4d;stroke:#000000;stroke-width:0.85039401;stroke-linecap:round;stroke-linejoin:round"
       d="m 149.211,311.363 22.105,165.79"
       id="path4019"
       inkscape:connector-curvature="0" />
    <path
       style="fill:#4d4d4d;stroke:#000000;stroke-width:0.85039401;stroke-linecap:round;stroke-linejoin:round"
       d="M 171.316,477.153 H 337.105"
       id="path4021"
       inkscape:connector-curvature="0" />
    <path
       style="fill:#4d4d4d;stroke:#000000;stroke-width:0.85039401;stroke-linecap:round;stroke-linejoin:round"
       d="m 337.105,477.153 22.106,-165.79"
       id="path4023"
       inkscape:connector-curvature="0" />
    <path
       style="fill:#4d4d4d;stroke:#000000;stroke-width:0.85039401;stroke-linecap:round;stroke-linejoin:round"
       d="M 396.789,311.363 H 359.211"
       id="path4025"
       inkscape:connector-curvature="0" />
    <path
       style="fill:#4d4d4d;stroke:#000000;stroke-width:0.85039401;stroke-linecap:round;stroke-linejoin:round"
       d="m 396.789,311.363 v 55.264"
       id="path4027"
       inkscape:connector-curvature="0" />
    <path
       style="fill:#4d4d4d;stroke:#000000;stroke-width:0.85039401;stroke-linecap:round;stroke-linejoin:round"
       d="m 396.789,366.627 h 46.422"
       id="path4029"
       inkscape:connector-curvature="0" />
    <path
       style="fill:#4d4d4d;stroke:#000000;stroke-width:0.85039401;stroke-linecap:round;stroke-linejoin:round"
       d="M 443.211,366.627 V 311.363"
       id="path4031"
       inkscape:connector-curvature="0" />
    <path
       style="fill:#4d4d4d;stroke:#000000;stroke-width:0.85039401;stroke-linecap:round;stroke-linejoin:round"
       d="M 480.789,311.363 H 443.211"
       id="path4033"
       inkscape:connector-curvature="0" />
    <path
       style="fill:#4d4d4d;stroke:#000000;stroke-width:0.85039401;stroke-linecap:round;stroke-linejoin:round"
       d="m 480.789,311.363 22.106,165.79"
       id="path4035"
       inkscape:connector-curvature="0" />
    <path
       style="fill:#4d4d4d;stroke:#000000;stroke-width:0.85039401;stroke-linecap:round;stroke-linejoin:round"
       d="M 502.895,477.153 H 668.684"
       id="path4037"
       inkscape:connector-curvature="0" />
    <path
       style="fill:#4d4d4d;stroke:#000000;stroke-width:0.85039401;stroke-linecap:round;stroke-linejoin:round"
       d="m 668.684,477.153 22.105,-165.79"
       id="path4039"
       inkscape:connector-curvature="0" />
    <path
       style="fill:#4d4d4d;stroke:#000000;stroke-width:0.85039401;stroke-linecap:round;stroke-linejoin:round"
       d="m 467.526,808.732 c 0,-1.83 -1.485,-3.316 -3.315,-3.316 -1.831,0 -3.316,1.486 -3.316,3.316 0,1.83 1.485,3.316 3.316,3.316 1.83,0 3.315,-1.486 3.315,-3.316 z"
       id="path4041"
       inkscape:connector-curvature="0" />
    <path
       style="fill:#4d4d4d;stroke:#000000;stroke-width:0.85039401;stroke-linecap:round;stroke-linejoin:round"
       d="m 379.105,808.732 c 0,-1.83 -1.485,-3.316 -3.316,-3.316 -1.83,0 -3.315,1.486 -3.315,3.316 0,1.83 1.485,3.316 3.315,3.316 1.831,0 3.316,-1.486 3.316,-3.316 z"
       id="path4043"
       inkscape:connector-curvature="0" />
    <path
       style="fill:#4d4d4d;stroke:#000000;stroke-width:0.85039401;stroke-linecap:round;stroke-linejoin:round"
       d="m 801.868,808.732 c 0,-1.83 -1.485,-3.316 -3.315,-3.316 -1.831,0 -3.316,1.486 -3.316,3.316 0,1.83 1.485,3.316 3.316,3.316 1.83,0 3.315,-1.486 3.315,-3.316 z"
       id="path4045"
       inkscape:connector-curvature="0" />
    <path
       style="fill:#4d4d4d;stroke:#000000;stroke-width:0.85039401;stroke-linecap:round;stroke-linejoin:round"
       d="m 713.447,808.732 c 0,-1.83 -1.485,-3.316 -3.315,-3.316 -1.831,0 -3.316,1.486 -3.316,3.316 0,1.83 1.485,3.316 3.316,3.316 1.83,0 3.315,-1.486 3.315,-3.316 z"
       id="path4047"
       inkscape:connector-curvature="0" />
    <path
       style="fill:#4d4d4d;stroke:#000000;stroke-width:0.85039401;stroke-linecap:round;stroke-linejoin:round"
       d="m 44.7632,808.732 c 0,-1.83 -1.4856,-3.316 -3.3158,-3.316 -1.8302,0 -3.3158,1.486 -3.3158,3.316 0,1.83 1.4856,3.316 3.3158,3.316 1.8302,0 3.3158,-1.486 3.3158,-3.316 z"
       id="path4049"
       inkscape:connector-curvature="0" />
    <path
       style="fill:#4d4d4d;stroke:#000000;stroke-width:0.85039401;stroke-linecap:round;stroke-linejoin:round"
       d="m 133.184,808.732 c 0,-1.83 -1.485,-3.316 -3.316,-3.316 -1.83,0 -3.315,1.486 -3.315,3.316 0,1.83 1.485,3.316 3.315,3.316 1.831,0 3.316,-1.486 3.316,-3.316 z"
       id="path4051"
       inkscape:connector-curvature="0" />
    <path
       style="fill:#4d4d4d;stroke:#000000;stroke-width:0.85039401;stroke-linecap:round;stroke-linejoin:round"
       d="m 713.447,344.521 c 0,-1.83 -1.485,-3.315 -3.315,-3.315 -1.831,0 -3.316,1.485 -3.316,3.315 0,1.831 1.485,3.316 3.316,3.316 1.83,0 3.315,-1.485 3.315,-3.316 z"
       id="path4053"
       inkscape:connector-curvature="0" />
    <path
       style="fill:#4d4d4d;stroke:#000000;stroke-width:0.85039401;stroke-linecap:round;stroke-linejoin:round"
       d="m 801.868,344.521 c 0,-1.83 -1.485,-3.315 -3.315,-3.315 -1.831,0 -3.316,1.485 -3.316,3.315 0,1.831 1.485,3.316 3.316,3.316 1.83,0 3.315,-1.485 3.315,-3.316 z"
       id="path4055"
       inkscape:connector-curvature="0" />
    <path
       style="fill:#4d4d4d;stroke:#000000;stroke-width:0.85039401;stroke-linecap:round;stroke-linejoin:round"
       d="m 133.184,344.521 c 0,-1.83 -1.485,-3.315 -3.316,-3.315 -1.83,0 -3.315,1.485 -3.315,3.315 0,1.831 1.485,3.316 3.315,3.316 1.831,0 3.316,-1.485 3.316,-3.316 z"
       id="path4057"
       inkscape:connector-curvature="0" />
    <path
       style="fill:#4d4d4d;stroke:#000000;stroke-width:0.85039401;stroke-linecap:round;stroke-linejoin:round"
       d="M 42,499.258 H 8.8421"
       id="path4059"
       inkscape:connector-curvature="0" />
    <path
       style="fill:#4d4d4d;stroke:#000000;stroke-width:0.85039401;stroke-linecap:round;stroke-linejoin:round"
       d="M 8.8421,499.258 V 653.995"
       id="path4061"
       inkscape:connector-curvature="0" />
    <path
       style="fill:#4d4d4d;stroke:#000000;stroke-width:0.85039401;stroke-linecap:round;stroke-linejoin:round"
       d="M 8.8421,653.995 H 42"
       id="path4063"
       inkscape:connector-curvature="0" />
    <path
       style="fill:#4d4d4d;stroke:#000000;stroke-width:0.85039401;stroke-linecap:round;stroke-linejoin:round"
       d="M 42,653.995 V 499.258"
       id="path4065"
       inkscape:connector-curvature="0" />
    <path
       style="fill:#4d4d4d;stroke:#000000;stroke-width:0.85039401;stroke-linecap:round;stroke-linejoin:round"
       d="M 831.158,499.258 H 798"
       id="path4067"
       inkscape:connector-curvature="0" />
    <path
       style="fill:#4d4d4d;stroke:#000000;stroke-width:0.85039401;stroke-linecap:round;stroke-linejoin:round"
       d="M 798,499.258 V 653.995"
       id="path4069"
       inkscape:connector-curvature="0" />
    <path
       style="fill:#4d4d4d;stroke:#000000;stroke-width:0.85039401;stroke-linecap:round;stroke-linejoin:round"
       d="m 798,653.995 h 33.158"
       id="path4071"
       inkscape:connector-curvature="0" />
    <path
       style="fill:#4d4d4d;stroke:#000000;stroke-width:0.85039401;stroke-linecap:round;stroke-linejoin:round"
       d="M 831.158,653.995 V 499.258"
       id="path4073"
       inkscape:connector-curvature="0" />
    <path
       style="fill:#4d4d4d;stroke:#000000;stroke-width:0.85039401;stroke-linecap:round;stroke-linejoin:round"
       d="m 777.829,640.179 c 0,-1.83 -1.486,-3.316 -3.316,-3.316 -1.83,0 -3.316,1.486 -3.316,3.316 0,1.83 1.486,3.316 3.316,3.316 1.83,0 3.316,-1.486 3.316,-3.316 z"
       id="path4075"
       inkscape:connector-curvature="0" />
    <path
       style="fill:#4d4d4d;stroke:#000000;stroke-width:0.85039401;stroke-linecap:round;stroke-linejoin:round"
       d="m 68.8026,640.179 c 0,-1.83 -1.4855,-3.316 -3.3158,-3.316 -1.8302,0 -3.3157,1.486 -3.3157,3.316 0,1.83 1.4855,3.316 3.3157,3.316 1.8303,0 3.3158,-1.486 3.3158,-3.316 z"
       id="path4077"
       inkscape:connector-curvature="0" />
    <path
       style="fill:#4d4d4d;stroke:#000000;stroke-width:0.85039401;stroke-linecap:round;stroke-linejoin:round"
       d="m 114.671,640.179 c 0,-1.83 -1.486,-3.316 -3.316,-3.316 -1.83,0 -3.316,1.486 -3.316,3.316 0,1.83 1.486,3.316 3.316,3.316 1.83,0 3.316,-1.486 3.316,-3.316 z"
       id="path4079"
       inkscape:connector-curvature="0" />
    <path
       style="fill:#4d4d4d;stroke:#000000;stroke-width:0.85039401;stroke-linecap:round;stroke-linejoin:round"
       d="m 114.671,513.074 c 0,-1.83 -1.486,-3.316 -3.316,-3.316 -1.83,0 -3.316,1.486 -3.316,3.316 0,1.83 1.486,3.316 3.316,3.316 1.83,0 3.316,-1.486 3.316,-3.316 z"
       id="path4081"
       inkscape:connector-curvature="0" />
    <path
       style="fill:#4d4d4d;stroke:#000000;stroke-width:0.85039401;stroke-linecap:round;stroke-linejoin:round"
       d="m 731.961,513.074 c 0,-1.83 -1.486,-3.316 -3.316,-3.316 -1.83,0 -3.316,1.486 -3.316,3.316 0,1.83 1.486,3.316 3.316,3.316 1.83,0 3.316,-1.486 3.316,-3.316 z"
       id="path4083"
       inkscape:connector-curvature="0" />
    <path
       style="fill:#4d4d4d;stroke:#000000;stroke-width:0.85039401;stroke-linecap:round;stroke-linejoin:round"
       d="m 777.829,513.074 c 0,-1.83 -1.486,-3.316 -3.316,-3.316 -1.83,0 -3.316,1.486 -3.316,3.316 0,1.83 1.486,3.316 3.316,3.316 1.83,0 3.316,-1.486 3.316,-3.316 z"
       id="path4085"
       inkscape:connector-curvature="0" />
    <path
       style="fill:#4d4d4d;stroke:#000000;stroke-width:0.85039401;stroke-linecap:round;stroke-linejoin:round"
       d="m 731.961,640.179 c 0,-1.83 -1.486,-3.316 -3.316,-3.316 -1.83,0 -3.316,1.486 -3.316,3.316 0,1.83 1.486,3.316 3.316,3.316 1.83,0 3.316,-1.486 3.316,-3.316 z"
       id="path4087"
       inkscape:connector-curvature="0" />
    <path
       style="fill:#4d4d4d;stroke:#000000;stroke-width:0.85039401;stroke-linecap:round;stroke-linejoin:round"
       d="m 68.8026,513.074 c 0,-1.83 -1.4855,-3.316 -3.3158,-3.316 -1.8302,0 -3.3157,1.486 -3.3157,3.316 0,1.83 1.4855,3.316 3.3157,3.316 1.8303,0 3.3158,-1.486 3.3158,-3.316 z"
       id="path4089"
       inkscape:connector-curvature="0" />
    <path
       style="fill:#4d4d4d;stroke:#000000;stroke-width:0.85039401;stroke-linecap:round;stroke-linejoin:round"
       d="M 265.263,648.469 V 504.785"
       id="path4091"
       inkscape:connector-curvature="0" />
    <path
       style="fill:#4d4d4d;stroke:#000000;stroke-width:0.85039401;stroke-linecap:round;stroke-linejoin:round"
       d="M 265.263,504.785 H 183.474"
       id="path4093"
       inkscape:connector-curvature="0" />
    <path
       style="fill:#4d4d4d;stroke:#000000;stroke-width:0.85039401;stroke-linecap:round;stroke-linejoin:round"
       d="M 183.474,504.785 V 648.469"
       id="path4095"
       inkscape:connector-curvature="0" />
    <path
       style="fill:#4d4d4d;stroke:#000000;stroke-width:0.85039401;stroke-linecap:round;stroke-linejoin:round"
       d="m 183.474,648.469 h 81.789"
       id="path4097"
       inkscape:connector-curvature="0" />
    <path
       style="fill:#4d4d4d;stroke:#000000;stroke-width:0.85039401;stroke-linecap:round;stroke-linejoin:round"
       d="M 656.526,504.785 H 574.737"
       id="path4099"
       inkscape:connector-curvature="0" />
    <path
       style="fill:#4d4d4d;stroke:#000000;stroke-width:0.85039401;stroke-linecap:round;stroke-linejoin:round"
       d="M 574.737,504.785 V 648.469"
       id="path4101"
       inkscape:connector-curvature="0" />
    <path
       style="fill:#4d4d4d;stroke:#000000;stroke-width:0.85039401;stroke-linecap:round;stroke-linejoin:round"
       d="m 574.737,648.469 h 81.789"
       id="path4103"
       inkscape:connector-curvature="0" />
    <path
       style="fill:#4d4d4d;stroke:#000000;stroke-width:0.85039401;stroke-linecap:round;stroke-linejoin:round"
       d="M 656.526,648.469 V 504.785"
       id="path4105"
       inkscape:connector-curvature="0" />
    <path
       style="fill:#4d4d4d;stroke:#000000;stroke-width:0.85039401;stroke-linecap:round;stroke-linejoin:round"
       d="m 345.947,631.89 c 0,-1.83 -1.485,-3.316 -3.315,-3.316 -1.831,0 -3.316,1.486 -3.316,3.316 0,1.83 1.485,3.316 3.316,3.316 1.83,0 3.315,-1.486 3.315,-3.316 z"
       id="path4107"
       inkscape:connector-curvature="0" />
    <path
       style="fill:#4d4d4d;stroke:#000000;stroke-width:0.85039401;stroke-linecap:round;stroke-linejoin:round"
       d="m 500.684,521.363 c 0,-1.83 -1.485,-3.315 -3.316,-3.315 -1.83,0 -3.315,1.485 -3.315,3.315 0,1.831 1.485,3.316 3.315,3.316 1.831,0 3.316,-1.485 3.316,-3.316 z"
       id="path4109"
       inkscape:connector-curvature="0" />
    <path
       style="fill:#4d4d4d;stroke:#000000;stroke-width:0.85039401;stroke-linecap:round;stroke-linejoin:round"
       d="m 345.947,521.363 c 0,-1.83 -1.485,-3.315 -3.315,-3.315 -1.831,0 -3.316,1.485 -3.316,3.315 0,1.831 1.485,3.316 3.316,3.316 1.83,0 3.315,-1.485 3.315,-3.316 z"
       id="path4111"
       inkscape:connector-curvature="0" />
    <path
       style="fill:#4d4d4d;stroke:#000000;stroke-width:0.85039401;stroke-linecap:round;stroke-linejoin:round"
       d="m 500.684,631.89 c 0,-1.83 -1.485,-3.316 -3.316,-3.316 -1.83,0 -3.315,1.486 -3.315,3.316 0,1.83 1.485,3.316 3.315,3.316 1.831,0 3.316,-1.486 3.316,-3.316 z"
       id="path4113"
       inkscape:connector-curvature="0" />
  </g>
  <path
     style="fill:#4d4d4d;stroke-width:0.6969288"
     d="m 136.37821,611.2144 c -0.19974,-0.6708 -6.17962,-32.29312 -13.28861,-70.27192 L 110.16415,471.89015 V 348.17328 224.45641 l 12.89558,-68.92758 c 7.09257,-37.91016 13.05728,-69.633208 13.25492,-70.495648 l 0.35935,-1.5681 h 17.05348 17.05348 l 0.18223,27.702918 0.18223,27.70292 23.86981,0.18338 23.86981,0.18338 V 111.35139 83.465082 h 19.45863 19.45864 l 0.37565,1.91656 c 0.20661,1.0541 5.10219,37.668998 10.87908,81.366428 5.77687,43.69744 10.65661,80.15553 10.84385,81.01798 l 0.34045,1.56809 h 83.4809 83.48091 l 10.96199,-82.41183 c 6.0291,-45.32651 10.95195,-82.647048 10.93967,-82.934528 -0.0123,-0.28748 8.12815,-0.5227 18.08983,-0.5227 h 18.11215 l 0.18223,27.702918 0.18222,27.70292 h 23.69559 23.69558 l 0.18223,-27.70292 0.18222,-27.702918 h 18.02097 18.02096 l 0.34654,2.26502 c 0.1906,1.24576 5.17112,38.567128 11.06781,82.936378 l 10.72129,80.67136 83.59854,-0.17609 83.59853,-0.17607 10.98626,-82.23761 c 6.04244,-45.23067 10.99674,-82.472808 11.00954,-82.760288 0.0128,-0.28748 8.80097,-0.5227 19.52929,-0.5227 h 19.50606 l 0.18217,27.702918 0.18225,27.70292 h 23.69561 23.69558 l 0.18225,-27.71507 0.18225,-27.715078 17.18805,0.18639 17.18805,0.18639 13.09335,69.692878 13.09335,69.69287 0.012,124.75026 0.012,124.75026 -13.0839,69.69286 -13.08405,69.69292 -17.21723,0.18638 -17.21722,0.18645 v -27.5409 -27.54082 h -24.0441 -24.04401 v 27.52867 27.52867 h -19.43644 -19.43646 l -0.4016,-2.265 c -0.22102,-1.24582 -5.12088,-37.86067 -10.88872,-81.36644 -5.76783,-43.5058 -10.64619,-79.80835 -10.8408,-80.67236 l -0.35382,-1.5709 -83.41033,0.17705 -83.41032,0.17705 -10.98626,82.23761 c -6.04244,45.23069 -10.99674,82.47277 -11.00954,82.76032 -0.0128,0.28747 -8.17736,0.52267 -18.14344,0.52267 h -18.12015 v -27.52867 -27.52867 h -24.04404 -24.04404 v 27.52867 27.52867 h -18.12015 c -11.94365,0 -18.12015,-0.2442 -18.12015,-0.7164 0,-1.3896 -21.65278,-163.42221 -21.9533,-164.2815 -0.24144,-0.69037 -17.58169,-0.87116 -83.55417,-0.87116 h -83.24979 l -0.38824,1.91656 c -0.21354,1.0541 -5.10656,37.51218 -10.87337,81.01796 -5.76682,43.50577 -10.65982,79.96387 -10.87336,81.01799 l -0.38825,1.91655 h -19.45864 -19.45863 v -27.53782 -27.5379 l -23.86981,0.18345 -23.86981,0.18338 -0.18232,27.35444 -0.18232,27.35445 h -17.01971 c -15.60627,0 -17.04986,-0.10132 -17.38286,-1.21965 z m 16.84045,-27.74242 c 2.93173,-2.0535 1.2502,-7.27823 -2.34241,-7.27823 -3.6368,0 -5.22113,5.18033 -2.22595,7.27823 0.85192,0.5967 1.8798,1.08487 2.28418,1.08487 0.40439,0 1.43227,-0.48817 2.28418,-1.08487 z m 88.66504,-0.30893 c 3.67466,-3.6747 -0.98577,-9.1113 -5.18088,-6.0438 -1.78006,1.30163 -1.62267,4.6251 0.29247,6.17588 2.00518,1.62375 3.1639,1.5924 4.88841,-0.13208 z m 246.53856,-0.55207 c 3.12034,-3.96945 -2.5122,-8.60933 -6.09812,-5.02335 -1.84834,1.8483 -1.75762,3.1842 0.36006,5.3019 1.90238,1.90237 4.10783,1.79535 5.73806,-0.27855 z m 88.50996,0 c 0.47914,-0.60953 0.87116,-1.6755 0.87116,-2.36888 0,-1.68195 -2.44424,-4.04835 -4.18157,-4.04835 -1.73734,0 -4.18158,2.3664 -4.18158,4.04835 0,3.76748 5.11998,5.38635 7.49199,2.36888 z m 245.17641,0.23527 c 0.94086,-0.94087 1.71062,-2.19532 1.71062,-2.78775 0,-1.65172 -2.58477,-3.86475 -4.51394,-3.86475 -3.76119,0 -5.0388,6.25373 -1.56336,7.65218 2.28063,0.9177 2.49933,0.86767 4.36668,-0.99968 z m 88.55323,-0.0435 c 1.90237,-1.90237 1.79527,-4.10782 -0.27855,-5.7381 -3.96953,-3.1203 -8.60933,2.5122 -5.02343,6.09818 1.84838,1.8483 3.18428,1.75762 5.30198,-0.36008 z M 414.49028,438.47 c 1.06962,-1.63245 1.08719,-2.01424 0.16832,-3.65888 -1.95392,-3.49722 -7.60278,-2.2292 -7.60278,1.70664 0,3.84201 5.28663,5.23025 7.43446,1.95224 z m 117.87334,0.98632 c 1.36188,-1.36188 1.03352,-5.28147 -0.51173,-6.10846 -3.2021,-1.71371 -6.31817,-0.0514 -6.31817,3.37052 0,2.48362 1.16961,3.57425 3.83311,3.57425 1.18826,0 2.53682,-0.37634 2.99679,-0.83631 z m 118.59277,-0.51173 c 2.24515,-4.19512 -2.06297,-8.16421 -5.85329,-5.39266 -1.45602,1.06466 -1.6713,4.15693 -0.39634,5.69316 1.28535,1.54875 5.36491,1.35258 6.24963,-0.3005 z M 151.97988,348.29803 V 270.242 h -17.07476 -17.07475 v 78.05603 78.05603 h 17.07475 17.07476 z m 789.44908,-0.17424 0.1773,-77.88179 h -17.42625 -17.42625 v 78.06821 78.06819 l 17.24902,-0.1864 17.24895,-0.18641 z m -565.73493,0.17424 V 275.81744 H 333.8783 292.06257 v 72.48059 72.48059 h 41.81573 41.81573 z m 390.97706,0 v -72.48059 h -41.46727 -41.46727 v 72.48059 72.48059 h 41.46727 41.46727 z m -588.90485,66.20823 c 0.76662,-0.76662 1.39386,-2.02109 1.39386,-2.78771 0,-0.76662 -0.62724,-2.02109 -1.39386,-2.78771 -0.76662,-0.76663 -2.02109,-1.39386 -2.78771,-1.39386 -0.76662,0 -2.0211,0.62723 -2.78772,1.39386 -0.76662,0.76662 -1.39385,2.02109 -1.39385,2.78771 0,0.76662 0.62723,2.02109 1.39385,2.78771 0.76662,0.76662 2.0211,1.39386 2.78772,1.39386 0.76662,0 2.02109,-0.62724 2.78771,-1.39386 z m 45.41973,0.24045 c 2.37377,-2.14822 0.8552,-7.20973 -2.16308,-7.20973 -3.81807,0 -5.71502,5.15222 -2.6797,7.27823 1.98309,1.38901 3.25208,1.37107 4.84278,-0.0685 z m 617.2045,0.0685 c 2.97749,-2.08552 1.15202,-7.27824 -2.55863,-7.27824 -1.71069,0 -3.55866,2.20704 -3.55866,4.25007 0,1.86322 2.09671,4.11308 3.8331,4.11308 0.40437,0 1.43226,-0.48821 2.28419,-1.08491 z m 45.99726,0 c 3.44408,-2.41228 0.58545,-8.06211 -3.5535,-7.02331 -1.76925,0.44407 -3.56122,3.53128 -2.81505,4.85003 1.89015,3.34088 3.78053,3.98599 6.36855,2.17328 z m -431.64806,-8.61045 c 1.71888,-1.89933 1.18229,-5.00461 -1.08354,-6.27054 -1.64465,-0.91887 -2.02643,-0.9013 -3.65888,0.16831 -1.20608,0.79026 -1.82263,1.81856 -1.82263,3.03985 0,3.84675 4.11716,5.76727 6.56505,3.06238 z m 154.71819,0 c 1.71888,-1.89933 1.18229,-5.00461 -1.08354,-6.27054 -1.64464,-0.91887 -2.02642,-0.9013 -3.65887,0.16831 -1.20609,0.79026 -1.82263,1.81856 -1.82263,3.03985 0,3.84675 4.11716,5.76727 6.56504,3.06238 z M 284.51571,389.65728 c 2.53688,-2.29585 0.93684,-6.68705 -2.43658,-6.68705 -2.62571,0 -3.95513,1.36402 -3.95513,4.05805 0,3.52458 3.71407,5.05223 6.39171,2.629 z m 495.39702,-0.24045 c 1.7245,-1.72451 1.75582,-2.88323 0.13212,-4.88841 -1.55079,-1.91514 -4.87428,-2.07253 -6.17589,-0.29247 -3.06549,4.1923 2.37156,8.85309 6.04377,5.18088 z M 284.51571,312.29818 c 2.53688,-2.29584 0.93684,-6.68704 -2.43658,-6.68704 -2.62571,0 -3.95513,1.36402 -3.95513,4.05804 0,3.52459 3.71407,5.05223 6.39171,2.629 z m 495.39702,-0.24045 c 1.7245,-1.7245 1.75582,-2.88322 0.13212,-4.88841 -1.55079,-1.91514 -4.87428,-2.07253 -6.17589,-0.29247 -3.06549,4.19231 2.37156,8.85309 6.04377,5.18088 z M 455.00452,295.88898 c 0.45998,-0.45998 0.83632,-1.80853 0.83632,-2.99679 0,-2.76509 -1.10002,-3.83311 -3.94798,-3.83311 -3.41854,0 -5.06631,4.12781 -2.62306,6.57104 1.29605,1.29605 4.55063,1.44296 5.73472,0.25886 z m 154.7182,0 c 0.45997,-0.45998 0.83631,-1.80853 0.83631,-2.99679 0,-2.6635 -1.09063,-3.83311 -3.57425,-3.83311 -2.33716,0 -4.09196,1.6438 -4.09196,3.83311 0,0.90352 0.49282,2.13559 1.09517,2.73793 1.29605,1.29605 4.55063,1.44296 5.73473,0.25886 z m -431.49131,-9.34945 c 1.06962,-1.63246 1.08719,-2.01424 0.16832,-3.65889 -1.89925,-3.39939 -7.60277,-2.25362 -7.60277,1.52731 0,3.86082 5.30482,5.3818 7.43445,2.13158 z m 45.53392,0.77508 c 0.47816,-0.57614 0.86938,-1.82965 0.86938,-2.78556 0,-2.40346 -1.37793,-3.83312 -3.69443,-3.83312 -2.38631,0 -4.14602,1.6269 -4.14602,3.83312 0,0.90351 0.49283,2.13558 1.09517,2.73792 1.38977,1.38978 4.73949,1.41693 5.8759,0.0477 z m 617.58056,-0.64339 c 1.78895,-3.92635 -1.45539,-7.17071 -5.38176,-5.38175 -1.29593,0.59046 -1.69095,1.31119 -1.69095,3.08525 0,2.92663 1.0608,3.98743 3.98741,3.98743 1.7741,0 2.49479,-0.39501 3.0853,-1.69093 z m 45.49567,0.59575 c 2.39475,-2.39483 0.4188,-6.57104 -3.10905,-6.57104 -2.26253,0 -3.6363,1.44809 -3.6363,3.83312 0,0.95591 0.39127,2.20942 0.8694,2.78556 1.1364,1.36929 4.48612,1.34214 5.87595,-0.0477 z M 412.37206,263.5526 c 1.35267,-0.36301 3.04691,-2.86204 3.04691,-4.49425 0,-1.18291 -2.7486,-3.45185 -4.18157,-3.45185 -0.76662,0 -2.0211,0.62724 -2.78772,1.39386 -0.76662,0.76662 -1.39386,2.02109 -1.39386,2.78771 0,1.35187 2.25301,4.19131 3.31041,4.17206 0.28749,-0.005 1.19011,-0.18862 2.00583,-0.40753 z M 531.651,262.88474 c 2.84412,-1.99211 1.27308,-7.27824 -2.16308,-7.27824 -3.65286,0 -5.37152,5.20059 -2.40527,7.27824 0.8519,0.59669 1.87979,1.0849 2.28418,1.0849 0.40438,0 1.43227,-0.48821 2.28417,-1.0849 z m 118.4779,0 c 3.02336,-2.11765 1.14119,-7.27824 -2.65451,-7.27824 -1.55673,0 -3.24054,1.46785 -3.78415,3.2988 -0.33706,1.13528 0.0125,2.03113 1.29181,3.31041 2.03667,2.03667 3.01305,2.1636 5.14685,0.66903 z M 153.89643,118.81493 c 1.23543,-0.95594 1.07943,-3.99664 -0.28225,-5.50127 -2.5443,-2.81142 -6.75662,-0.72856 -6.37621,3.15283 0.32887,3.35546 3.78269,4.57362 6.65846,2.34844 z m 89.0059,-1.48761 c 1.12295,-3.14527 -1.45322,-5.85494 -4.77404,-5.02147 -3.43324,0.86169 -3.7094,5.49684 -0.42692,7.16557 2.14475,1.09033 4.37433,0.17118 5.20096,-2.1441 z m 245.51993,1.12909 c 3.12034,-3.96946 -2.5122,-8.60932 -6.09812,-5.02339 -1.84834,1.84834 -1.75762,3.18425 0.36006,5.30193 1.90238,1.90238 4.10783,1.79533 5.73806,-0.27854 z m 87.54481,0.50146 c 2.09696,-1.64947 2.3068,-3.14912 0.7514,-5.36978 -2.14501,-3.06243 -7.27824,-1.13198 -7.27824,2.73713 0,1.10807 3.04512,4.07709 4.18158,4.07709 0.27993,0 1.33529,-0.65 2.34526,-1.44444 z m 246.14156,-0.2662 c 2.07511,-2.07516 2.1561,-3.41931 0.31676,-5.25865 -1.69479,-1.69479 -3.98107,-1.79132 -5.69482,-0.24045 -2.66644,2.41312 -0.77115,6.76922 3.11305,7.15472 0.3049,0.0302 1.32416,-0.71477 2.26501,-1.65562 z m 89.28965,-1.07633 c 1.09035,-2.14474 0.17123,-4.37433 -2.1441,-5.20095 -3.1452,-1.12295 -5.85495,1.45321 -5.0214,4.77404 0.86168,3.43324 5.49683,3.70939 7.1655,0.42691 z"
     id="path4125"
     inkscape:connector-curvature="0" />
</svg>
